<?xml version="1.0" encoding="utf-8"?>
<!-- Generator: Adobe Illustrator 24.3.0, SVG Export Plug-In . SVG Version: 6.00 Build 0)  -->
<svg version="1.1" id="Layer_1" xmlns="http://www.w3.org/2000/svg" xmlns:xlink="http://www.w3.org/1999/xlink" x="0px" y="0px"
	 viewBox="0 0 145 80" style="enable-background:new 0 0 145 80;" xml:space="preserve">
<style type="text/css">
	.st0{fill:#1D1D1B;}
	.st1{fill:#E53212;}
	.st2{fill:#EB6608;}
	.st3{fill:#3C3C3B;}
	.st4{fill:#FFFFFF;}
</style>
<g>
	<g>
		<g>
			<path class="st0" d="M11.6,40h6.5c0.3,0,0.6,0.1,0.8,0.3s0.4,0.4,0.6,0.7c0.1,0.3,0.2,0.5,0.3,0.8C20,42,20,42.2,20,42.4L24.7,60
				l4.7-16.7c0.2-0.7,0.2-1.2,0-1.5c-0.2-0.4-0.7-0.6-1.3-0.6V40h6v1.1c-1.6,0-2.6,0.7-3,2.2l-6,21.5h-1.3c-0.7,0-1.4-0.2-2-0.6
				c-0.6-0.4-1.1-1.1-1.5-2.1l-3-9.5l-3.9,12.2H12c-0.7,0-1.4-0.2-2-0.6c-0.6-0.4-1.1-1.1-1.4-2.1L3.1,43.3
				c-0.5-1.5-1.5-2.2-3.1-2.2V40h6.2c0.3,0,0.6,0.1,0.8,0.3c0.2,0.2,0.4,0.4,0.6,0.7c0.1,0.3,0.3,0.5,0.3,0.8
				C8,42,8.1,42.2,8.1,42.4l4.8,17.5l3.4-10l-1.6-6.6c-0.5-1.5-1.5-2.2-3.1-2.2V40z"/>
			<path class="st0" d="M47.7,47.7c2.6,0,4.6,0.5,6,1.5c1.4,1,2.1,2.5,2.1,4.6v11.1h-3.6c-0.5,0-0.9-0.1-1.2-0.4
				c-0.3-0.3-0.4-0.7-0.4-1.1v-8.6c0-2-0.3-3.4-0.8-4.2c-0.6-0.8-1.3-1.2-2.4-1.2c-1.1,0-2.2,0.4-3.3,1.2v14.3h-3.6
				c-0.5,0-0.9-0.1-1.2-0.4c-0.3-0.3-0.4-0.7-0.4-1.1V43.1c0-1.5-0.9-2.3-2.6-2.3V40h6.4c0.5,0,0.8,0.1,1.1,0.3
				c0.3,0.2,0.4,0.7,0.4,1.6v6.8c0.6-0.4,1.2-0.6,1.8-0.8C46.5,47.8,47.1,47.7,47.7,47.7z"/>
			<path class="st0" d="M82.9,50.6c-0.5-0.2-1.1-0.5-1.9-0.7c-0.8-0.3-1.8-0.4-3-0.4c-1.2,0-2.1,0.1-2.7,0.5
				c-0.6,0.3-0.9,0.7-0.9,1.3c0,0.3,0.1,0.6,0.2,0.8c0.1,0.2,0.4,0.5,0.6,0.6c0.2,0.2,0.5,0.3,0.8,0.5c0.3,0.1,0.6,0.3,0.9,0.4
				c0.8,0.4,1.6,0.7,2.4,1.1c0.7,0.3,1.4,0.7,2.1,1c1,0.6,1.9,1.2,2.5,1.9c0.7,0.7,1,1.5,1,2.4c0,1.7-0.7,3.1-2,4
				c-1.3,1-3.3,1.4-5.9,1.4c-1.2,0-2.3-0.2-3.4-0.7c-1.2-0.4-2.1-1-3-1.6l1-1.5c0.8,0.7,1.7,1.2,2.7,1.5c0.9,0.4,1.9,0.6,2.7,0.6
				c1.1,0,1.9-0.1,2.4-0.5c0.5-0.3,0.8-0.7,0.9-1.3c0.1-0.7,0-1.2-0.4-1.6c-0.4-0.4-0.9-0.8-1.5-1.2c-0.7-0.4-1.4-0.7-2.2-1.1
				c-0.8-0.4-1.6-0.7-2.4-1.1c-1-0.5-1.8-1-2.5-1.7c-0.7-0.7-1-1.5-1-2.6c0-1,0.2-1.9,0.7-2.5s1.1-1.2,1.8-1.5
				c0.7-0.4,1.5-0.6,2.4-0.7c0.9-0.1,1.8-0.2,2.6-0.2c0.4,0,0.9,0,1.4,0.1c0.5,0,1,0.1,1.5,0.3c0.5,0.1,1,0.2,1.4,0.4
				s0.9,0.4,1.3,0.6L82.9,50.6z"/>
			<path class="st0" d="M105.7,47.8l-5.5,6.2l4,8c0.2,0.5,0.6,1,1,1.6c0.4,0.6,0.8,0.9,1.2,1.2h-5.5c-0.5,0-0.9-0.2-1.3-0.6
				c-0.3-0.4-0.7-1-1-1.8l-2.1-4.2l-2.4,2.7v3.9h-3.6c-0.5,0-0.9-0.1-1.2-0.4c-0.3-0.3-0.4-0.7-0.4-1.1V43.1c0-1.5-0.9-2.3-2.6-2.3
				V40h6.2c0.5,0,0.8,0.1,1.1,0.3c0.3,0.2,0.4,0.7,0.4,1.6V58l9.3-10.2L105.7,47.8L105.7,47.8z"/>
			<path class="st0" d="M117,65.3c-3,0-5.2-0.7-6.8-2.2c-0.8-0.7-1.4-1.7-1.8-2.9c-0.4-1.2-0.6-2.5-0.6-3.9c0-2.7,0.8-4.8,2.4-6.4
				c1.6-1.5,3.9-2.3,6.7-2.3c2.9,0,5.2,0.7,6.7,2.3c0.8,0.7,1.3,1.7,1.8,2.8c0.4,1.1,0.6,2.3,0.6,3.7V57h-13c0,0.9,0,1.6,0,2.2
				c0,0.6,0.1,1.1,0.2,1.5c0,0.4,0.1,0.7,0.2,0.9c0,0.2,0.1,0.4,0.2,0.4c0.2,0.4,0.4,0.7,0.7,0.9s0.6,0.4,0.8,0.5
				c0.3,0.1,0.6,0.2,1,0.2c0.3,0,0.7,0,1,0c1.4,0,2.7-0.2,3.8-0.6s2.2-1,3.2-2l1.1,1.3c-0.7,0.7-1.3,1.2-2.1,1.6
				c-0.7,0.4-1.4,0.7-2.2,0.8c-0.7,0.2-1.4,0.3-2.1,0.4C118.2,65.3,117.6,65.3,117,65.3z M120.8,55.3c0-1-0.1-1.8-0.2-2.5
				c-0.1-0.7-0.2-1.2-0.4-1.6c-0.3-0.7-0.7-1.2-1.2-1.5c-0.5-0.3-1.2-0.4-2-0.4c-1.7,0-2.7,0.6-3.3,1.7c-0.2,0.6-0.4,1.2-0.5,1.9
				c-0.1,0.7-0.1,1.5-0.1,2.5L120.8,55.3L120.8,55.3z"/>
			<path class="st0" d="M135.4,64.8h-3.6c-0.5,0-0.9-0.1-1.2-0.4c-0.3-0.3-0.4-0.7-0.4-1.1V50.9c0-1.5-0.9-2.3-2.6-2.3v-0.8h6.4
				c0.6,0,0.9,0.2,1.1,0.6c0.2,0.4,0.3,0.8,0.4,1.3c0.8-0.7,1.6-1.3,2.4-1.6c0.8-0.3,1.7-0.4,2.7-0.4c0.5,0,1.1,0.1,1.9,0.2
				c0.7,0.2,1.6,0.6,2.6,1.2l-0.7,1.5c-0.7-0.4-1.3-0.7-1.9-0.9c-0.6-0.2-1.2-0.3-2-0.3c-2,0-3.7,0.8-5,2.4L135.4,64.8L135.4,64.8z"
				/>
		</g>
		<g>
			<path class="st1" d="M63.3,60.1c-0.7,0-1.3,0.3-1.9,0.8c-0.5,0.6-0.8,1.2-0.8,1.9s0.3,1.3,0.8,1.8c0.5,0.5,1.1,0.8,1.9,0.8
				c0.7,0,1.3-0.3,1.9-0.8c0.5-0.5,0.8-1.1,0.8-1.8s-0.3-1.3-0.8-1.9C64.7,60.3,64.1,60.1,63.3,60.1z"/>
			<path class="st2" d="M65.9,41.5c0-0.5-0.1-0.8-0.4-1.1c-0.3-0.3-0.7-0.4-1.2-0.4h-3.6v15.5c0,0.9,0.1,1.4,0.5,1.6
				c0.3,0.2,0.7,0.3,1.1,0.3h3.6V41.5z"/>
		</g>
	</g>
	<g>
		<path class="st3" d="M13.9,78.6C13.9,78.7,13.9,78.7,13.9,78.6l-0.5,0.1c-0.1,0-0.1,0-0.1-0.1V73c0-0.2,0-0.2,0.2-0.2H15
			c0.6,0,1.1,0.1,1.4,0.4s0.5,0.7,0.5,1.3c0,1.1-0.8,1.8-2,1.7h-1L13.9,78.6L13.9,78.6z M16.3,74.5c0-0.7-0.4-1.2-1.2-1.2h-1.2v2.4
			h0.7C15.6,75.7,16.2,75.5,16.3,74.5z"/>
		<path class="st3" d="M18.4,78.7H18c-0.1,0-0.1,0-0.1-0.1v-6.2c0-0.1,0-0.1,0.1-0.1h0.4c0.1,0,0.1,0,0.1,0.1v6.1
			C18.5,78.7,18.4,78.7,18.4,78.7z"/>
		<path class="st3" d="M20,75.1C20,75.1,20,75.1,20,75.1L20,74.7c0-0.1,0-0.1,0.1-0.2c0.4-0.2,0.8-0.3,1.3-0.3
			c1.1,0,1.5,0.5,1.5,1.5v2c0,0.3,0,0.6,0,0.8c0,0.1,0,0.1-0.1,0.1h-0.3c-0.1,0-0.1,0-0.1-0.1v-0.6c-0.2,0.6-0.8,0.8-1.4,0.8
			c-0.6,0-0.9-0.1-1.2-0.5c-0.2-0.2-0.3-0.5-0.3-0.8c0-0.7,0.3-1.1,0.9-1.3c0.4-0.1,1-0.2,1.8-0.2h0.1v-0.2c0-0.7-0.3-1-1-1
			C20.8,74.7,20.4,74.8,20,75.1z M22.3,76.5h-0.1c-0.6,0-1.1,0-1.4,0.2c-0.5,0.1-0.7,0.5-0.7,0.9c0,0.3,0.1,0.5,0.3,0.7
			c0.1,0.1,0.4,0.2,0.7,0.2c0.7,0,1.3-0.6,1.3-1.7L22.3,76.5L22.3,76.5z"/>
		<path class="st3" d="M26.2,78.7c-0.2,0.1-0.5,0.1-0.7,0.1c-0.4,0-0.7-0.1-0.8-0.4c-0.1-0.2-0.1-0.5-0.1-1v-2.6h-0.7
			c-0.1,0-0.1,0-0.1-0.1v-0.2c0-0.1,0-0.1,0.1-0.1h0.7v-1.1c0-0.1,0-0.1,0.1-0.1H25c0.1,0,0.1,0,0.1,0.1v1H26c0.1,0,0.1,0,0.1,0.1
			v0.2c0,0.1,0,0.1-0.1,0.1h-0.9v2.8c0,0.5,0.2,0.7,0.6,0.7c0.1,0,0.3,0,0.5-0.1c0,0,0.1,0,0.1,0v0.2C26.3,78.6,26.3,78.7,26.2,78.7
			z"/>
		<path class="st3" d="M29.1,72.3c0.1,0,0.1,0.1,0.1,0.2v0.2c0,0,0,0.1-0.1,0c-0.1,0-0.2,0-0.3,0c-0.3,0-0.5,0.1-0.6,0.5
			c0,0.1,0,0.4,0,0.8v0.4H29c0.1,0,0.1,0,0.1,0.1v0.2c0,0.1,0,0.1-0.1,0.1h-0.9v3.8c0,0.1,0,0.1-0.1,0.1h-0.3c-0.1,0-0.1,0-0.1-0.1
			v-3.7h-0.8c-0.1,0-0.1,0-0.1-0.1v-0.2c0-0.1,0-0.1,0.1-0.1h0.8v-0.3c0-0.6,0-1,0.1-1.3c0.2-0.4,0.5-0.6,1-0.6
			C28.8,72.2,28.9,72.2,29.1,72.3z"/>
		<path class="st3" d="M33.8,76.6c0,0.7-0.2,1.2-0.5,1.6c-0.4,0.5-0.9,0.7-1.5,0.7c-0.7,0-1.2-0.3-1.6-0.7c-0.3-0.4-0.5-1-0.5-1.6
			c0-0.7,0.1-1.2,0.5-1.6c0.4-0.5,0.9-0.7,1.6-0.7c0.7,0,1.2,0.2,1.5,0.7C33.6,75.4,33.8,75.9,33.8,76.6z M33.2,76.6
			c0-0.5-0.1-0.9-0.4-1.3c-0.3-0.3-0.7-0.5-1.1-0.5c-0.5,0-0.8,0.2-1.1,0.5c-0.2,0.3-0.4,0.8-0.4,1.3c0,0.5,0.1,1,0.4,1.3
			c0.3,0.3,0.7,0.5,1.1,0.5c0.5,0,0.8-0.2,1.1-0.5C33.1,77.5,33.2,77.1,33.2,76.6z"/>
		<path class="st3" d="M36.9,74.9c-0.1,0-0.2,0-0.4,0c-0.4,0-0.7,0.2-0.9,0.6c-0.1,0.3-0.2,0.7-0.2,1.2v2c0,0.1,0,0.1-0.1,0.1H35
			c-0.1,0-0.1,0-0.1-0.1v-3.3c0-0.4,0-0.6,0-0.8c0-0.1,0-0.1,0.1-0.1h0.3c0.1,0,0.1,0,0.1,0.1v0.8c0.3-0.7,0.7-1,1.2-1
			c0.1,0,0.2,0,0.4,0c0,0,0.1,0,0.1,0.1v0.3C37.1,74.9,37,74.9,36.9,74.9z"/>
		<path class="st3" d="M37.8,75.4c0-0.5,0-0.7,0-0.9c0-0.1,0-0.1,0.1-0.1h0.3c0.1,0,0.1,0,0.1,0.1v0.4c0.2-0.4,0.7-0.7,1.3-0.7
			c0.7,0,1.2,0.3,1.3,0.9c0.2-0.6,0.7-0.9,1.4-0.9c0.8,0,1.3,0.7,1.3,1.4v2.9c0,0.1,0,0.1-0.1,0.1h-0.3c-0.1,0-0.1,0-0.1-0.1v-2.8
			c0-0.7-0.3-1.1-0.9-1.1c-0.7,0-1.2,0.7-1.2,1.6v2.3c0,0.1,0,0.1-0.1,0.1h-0.3c-0.1,0-0.1,0-0.1-0.1v-2.7c0-0.7-0.3-1.1-0.9-1.1
			c-0.7,0-1.2,0.5-1.2,1.3v2.6c0,0.1,0,0.1-0.1,0.1h-0.3c-0.1,0-0.1,0-0.1-0.1L37.8,75.4L37.8,75.4z"/>
		<path class="st3" d="M52.1,78.6C52.2,78.7,52.2,78.7,52.1,78.6l-0.5,0.1c-0.1,0-0.1,0-0.2-0.1L50.9,78c-0.5,0.5-1.1,0.8-1.8,0.8
			c-0.6,0-1-0.1-1.3-0.4c-0.4-0.3-0.6-0.7-0.6-1.3c0-0.8,0.5-1.3,1.4-1.7c-0.3-0.3-0.4-0.5-0.5-0.7c-0.2-0.3-0.3-0.6-0.3-0.8
			c0-0.4,0.2-0.7,0.5-1c0.3-0.2,0.7-0.3,1.1-0.3c0.4,0,0.7,0.1,1,0.3c0.3,0.2,0.4,0.6,0.4,0.9c0,0.4-0.1,0.8-0.5,1l0,0
			c-0.2,0.1-0.5,0.4-1,0.6c0.6,0.6,1,1.2,1.6,1.8c0.3-0.5,0.5-1,0.5-1.7c0-0.1,0-0.1,0.1-0.1h0.3c0.1,0,0.1,0,0.1,0.1
			c0,0.7-0.2,1.4-0.7,2L52.1,78.6z M48.8,75.7c-0.3,0.1-0.6,0.3-0.8,0.5c-0.2,0.2-0.4,0.6-0.4,0.8c0,0.4,0.1,0.7,0.4,0.9
			c0.3,0.2,0.6,0.3,1,0.3c0.6,0,1.1-0.3,1.5-0.7L48.8,75.7z M50.1,73.9c0-0.3-0.1-0.5-0.2-0.7c-0.1-0.1-0.4-0.2-0.6-0.2
			c-0.3,0-0.5,0.1-0.7,0.2c-0.2,0.2-0.3,0.4-0.3,0.7c0,0.3,0.3,0.8,0.7,1.2c0.4-0.2,0.7-0.3,0.8-0.4C50,74.5,50.1,74.3,50.1,73.9z"
			/>
		<path class="st3" d="M55.3,78.6c-0.1,0-0.1-0.1-0.1-0.1l0-0.4c0-0.1,0.1-0.1,0.1-0.1c0.4,0.2,0.7,0.3,1.2,0.3
			c0.8,0,1.3-0.5,1.3-1.2c0-0.3-0.3-0.6-0.7-0.9c-0.7-0.5-2-1-2-2c0-1,0.9-1.6,1.9-1.6c0.4,0,0.7,0,1.1,0.1c0.1,0,0.1,0.1,0.1,0.1
			l0,0.3c0,0.1,0,0.1-0.1,0.1c-0.3-0.1-0.6-0.2-1-0.2c-0.7,0-1.3,0.3-1.3,1c0,0.6,0.8,1,1.3,1.3c0.7,0.4,1.4,0.8,1.4,1.7
			c0,1.1-0.9,1.7-2,1.7C56.1,78.9,55.8,78.8,55.3,78.6z"/>
		<path class="st3" d="M59.4,79.9c0,0-0.1,0-0.1-0.1l0-0.3c0,0,0-0.1,0.1,0c0.1,0,0.2,0,0.3,0c0.2,0,0.4-0.1,0.5-0.2
			c0.1-0.1,0.3-0.5,0.4-1c-0.5-1.3-0.9-2.6-1.4-3.9c0,0,0-0.1,0-0.1h0.4c0.1,0,0.1,0,0.1,0.1l1.1,3.1c0.4-1.1,0.7-2,1.1-3.1
			c0-0.1,0.1-0.1,0.1-0.1h0.3c0,0,0.1,0,0,0.1l-1.7,4.5c-0.1,0.3-0.3,0.6-0.4,0.7c-0.2,0.2-0.4,0.3-0.7,0.3
			C59.7,79.9,59.6,79.9,59.4,79.9z"/>
		<path class="st3" d="M63.3,78.2c0.3,0.1,0.7,0.2,1,0.2c0.6,0,1-0.3,1-0.8c0-0.3-0.2-0.6-0.6-0.7c-0.3-0.2-0.7-0.3-1-0.5
			c-0.4-0.2-0.6-0.6-0.6-0.9c0-0.8,0.7-1.2,1.4-1.2c0.4,0,0.7,0,1,0.1c0,0,0.1,0,0.1,0.1l0,0.2c0,0.1-0.1,0.1-0.1,0.1
			c-0.3-0.1-0.5-0.1-0.9-0.1c-0.6,0-0.9,0.2-0.9,0.7c0,0.2,0.1,0.4,0.6,0.6c0.3,0.2,0.7,0.3,1,0.5c0.3,0.2,0.6,0.6,0.6,1
			c0,0.8-0.7,1.3-1.5,1.3c-0.5,0-0.7,0-1.1-0.1c-0.1,0-0.1-0.1-0.1-0.1l0-0.3C63.2,78.2,63.2,78.2,63.3,78.2z"/>
		<path class="st3" d="M68.9,78.7c-0.2,0.1-0.5,0.1-0.7,0.1c-0.4,0-0.7-0.1-0.8-0.4c-0.1-0.2-0.1-0.5-0.1-1v-2.6h-0.8
			c-0.1,0-0.1,0-0.1-0.1v-0.2c0-0.1,0-0.1,0.1-0.1h0.7v-1.1c0-0.1,0-0.1,0.1-0.1h0.3c0.1,0,0.1,0,0.1,0.1v1h0.9c0.1,0,0.1,0,0.1,0.1
			v0.2c0,0.1,0,0.1-0.1,0.1h-0.9v2.8c0,0.5,0.2,0.7,0.6,0.7c0.1,0,0.3,0,0.5-0.1c0,0,0.1,0,0.1,0v0.2C69,78.6,69,78.7,68.9,78.7z"/>
		<path class="st3" d="M70.1,76.7c0,1.1,0.6,1.7,1.4,1.7c0.4,0,0.8-0.1,1.1-0.3c0.1,0,0.1,0,0.1,0v0.4c0,0,0,0.1-0.1,0.1
			c-0.4,0.1-0.7,0.2-1.2,0.2c-1.3,0-2-0.7-2-2.3c0-0.7,0.2-1.2,0.5-1.6c0.4-0.4,0.8-0.7,1.3-0.7c0.6,0,1,0.2,1.3,0.7
			c0.3,0.4,0.4,0.9,0.4,1.5c0,0.3,0,0.3-0.3,0.3H70.1z M72.5,76.3c0-0.4-0.1-0.8-0.3-1.1c-0.2-0.3-0.5-0.5-0.8-0.5s-0.7,0.1-0.9,0.5
			c-0.2,0.3-0.3,0.7-0.3,1L72.5,76.3L72.5,76.3z"/>
		<path class="st3" d="M74.2,75.4c0-0.5,0-0.7,0-0.9c0-0.1,0-0.1,0.1-0.1h0.3c0.1,0,0.1,0,0.1,0.1v0.4c0.2-0.4,0.7-0.7,1.3-0.7
			c0.7,0,1.2,0.3,1.3,0.9c0.2-0.6,0.7-0.9,1.4-0.9c0.8,0,1.3,0.7,1.3,1.4v2.9c0,0.1,0,0.1-0.1,0.1h-0.3c-0.1,0-0.1,0-0.1-0.1v-2.8
			c0-0.7-0.3-1.1-0.9-1.1c-0.7,0-1.2,0.7-1.2,1.6v2.3c0,0.1,0,0.1-0.1,0.1h-0.3c-0.1,0-0.1,0-0.1-0.1v-2.7c0-0.7-0.3-1.1-0.9-1.1
			c-0.7,0-1.2,0.5-1.2,1.3v2.6c0,0.1,0,0.1-0.1,0.1h-0.3c-0.1,0-0.1,0-0.1-0.1L74.2,75.4L74.2,75.4z"/>
		<path class="st3" d="M88.2,75.8c0,1-0.4,1.8-1,2.3c-0.6,0.4-1.4,0.7-2.5,0.7h-0.8c-0.2,0-0.2,0-0.2-0.2V73c0-0.2,0-0.2,0.2-0.2
			h1.3c1,0,1.8,0.3,2.3,0.8C87.9,74.1,88.2,74.8,88.2,75.8z M87.6,75.7c0-0.8-0.2-1.5-0.7-1.9c-0.4-0.4-1-0.6-1.7-0.6h-0.9v4.9h0.5
			C86.7,78.2,87.6,77.4,87.6,75.7z"/>
		<path class="st3" d="M89.8,76.7c0,1.1,0.6,1.7,1.4,1.7c0.4,0,0.8-0.1,1.1-0.3c0.1,0,0.1,0,0.1,0v0.4c0,0,0,0.1-0.1,0.1
			c-0.4,0.1-0.7,0.2-1.2,0.2c-1.3,0-2-0.7-2-2.3c0-0.7,0.2-1.2,0.5-1.6c0.4-0.4,0.8-0.7,1.3-0.7c0.6,0,1,0.2,1.3,0.7
			c0.3,0.4,0.4,0.9,0.4,1.5c0,0.3,0,0.3-0.3,0.3H89.8z M92.2,76.3c0-0.4-0.1-0.8-0.3-1.1c-0.2-0.3-0.5-0.5-0.8-0.5s-0.7,0.1-0.9,0.5
			c-0.2,0.3-0.3,0.7-0.3,1L92.2,76.3L92.2,76.3z"/>
		<path class="st3" d="M95.5,78.6c0,0.1-0.1,0.1-0.1,0.1H95c-0.1,0-0.1,0-0.1-0.1l-1.4-4.1c0,0,0-0.1,0.1-0.1h0.4c0,0,0.1,0,0.1,0.1
			l1.2,3.7l1.3-3.7c0,0,0.1-0.1,0.1-0.1H97c0,0,0.1,0,0.1,0.1L95.5,78.6z"/>
		<path class="st3" d="M98,76.7c0,1.1,0.6,1.7,1.4,1.7c0.4,0,0.8-0.1,1.1-0.3c0.1,0,0.1,0,0.1,0v0.4c0,0,0,0.1-0.1,0.1
			c-0.4,0.1-0.7,0.2-1.2,0.2c-1.3,0-2-0.7-2-2.3c0-0.7,0.2-1.2,0.5-1.6c0.4-0.4,0.8-0.7,1.3-0.7c0.6,0,1,0.2,1.3,0.7
			c0.3,0.4,0.4,0.9,0.4,1.5c0,0.3,0,0.3-0.3,0.3H98z M100.4,76.3c0-0.4-0.1-0.8-0.3-1.1c-0.2-0.3-0.5-0.5-0.8-0.5
			c-0.4,0-0.7,0.1-0.9,0.5c-0.2,0.3-0.3,0.7-0.3,1L100.4,76.3L100.4,76.3z"/>
		<path class="st3" d="M102.6,78.7h-0.4c-0.1,0-0.1,0-0.1-0.1v-6.2c0-0.1,0-0.1,0.1-0.1h0.4c0.1,0,0.1,0,0.1,0.1v6.1
			C102.7,78.7,102.7,78.7,102.6,78.7z"/>
		<path class="st3" d="M107.8,76.6c0,0.7-0.2,1.2-0.5,1.6c-0.4,0.5-0.9,0.7-1.5,0.7c-0.7,0-1.2-0.3-1.6-0.7c-0.3-0.4-0.5-1-0.5-1.6
			c0-0.7,0.1-1.2,0.5-1.6c0.4-0.5,0.9-0.7,1.6-0.7c0.7,0,1.2,0.2,1.5,0.7C107.7,75.4,107.8,75.9,107.8,76.6z M107.2,76.6
			c0-0.5-0.1-0.9-0.4-1.3c-0.3-0.3-0.7-0.5-1.1-0.5c-0.5,0-0.8,0.2-1.1,0.5c-0.2,0.3-0.4,0.8-0.4,1.3c0,0.5,0.1,1,0.4,1.3
			c0.3,0.3,0.7,0.5,1.1,0.5c0.5,0,0.8-0.2,1.1-0.5C107.1,77.5,107.2,77.1,107.2,76.6z"/>
		<path class="st3" d="M108.9,74.5C108.9,74.4,108.9,74.4,108.9,74.5l0.4-0.1c0.1,0,0.1,0,0.1,0.1l0,0.6c0.2-0.5,0.7-0.8,1.4-0.8
			c1.3,0,1.8,1,1.8,2.2c0,1.3-0.6,2.3-1.8,2.3c-0.7,0-1.1-0.3-1.4-0.7v1.7c0,0.1,0,0.1-0.1,0.1H109c0,0-0.1,0-0.1-0.1L108.9,74.5
			L108.9,74.5z M111.9,76.5c0-0.9-0.3-1.7-1.3-1.7c-0.9,0-1.3,0.8-1.3,1.7c0,1.3,0.5,1.9,1.3,1.9C111.5,78.4,111.9,77.7,111.9,76.5z
			"/>
		<path class="st3" d="M113.8,75.4c0-0.5,0-0.7,0-0.9c0-0.1,0-0.1,0.1-0.1h0.3c0.1,0,0.1,0,0.1,0.1v0.4c0.2-0.4,0.7-0.7,1.3-0.7
			c0.7,0,1.2,0.3,1.3,0.9c0.2-0.6,0.7-0.9,1.4-0.9c0.8,0,1.3,0.7,1.3,1.4v2.9c0,0.1,0,0.1-0.1,0.1h-0.3c-0.1,0-0.1,0-0.1-0.1v-2.8
			c0-0.7-0.3-1.1-0.9-1.1c-0.7,0-1.2,0.7-1.2,1.6v2.3c0,0.1,0,0.1-0.1,0.1h-0.3c-0.1,0-0.1,0-0.1-0.1v-2.7c0-0.7-0.3-1.1-0.9-1.1
			c-0.7,0-1.2,0.5-1.2,1.3v2.6c0,0.1,0,0.1-0.1,0.1h-0.3c-0.1,0-0.1,0-0.1-0.1L113.8,75.4L113.8,75.4z"/>
		<path class="st3" d="M121.4,76.7c0,1.1,0.6,1.7,1.4,1.7c0.4,0,0.8-0.1,1.1-0.3c0.1,0,0.1,0,0.1,0v0.4c0,0,0,0.1-0.1,0.1
			c-0.4,0.1-0.7,0.2-1.2,0.2c-1.3,0-2-0.7-2-2.3c0-0.7,0.2-1.2,0.5-1.6c0.4-0.4,0.8-0.7,1.3-0.7c0.6,0,1,0.2,1.3,0.7
			c0.3,0.4,0.4,0.9,0.4,1.5c0,0.3,0,0.3-0.3,0.3H121.4z M123.7,76.3c0-0.4-0.1-0.8-0.3-1.1c-0.2-0.3-0.5-0.5-0.8-0.5
			c-0.4,0-0.7,0.1-0.9,0.5c-0.2,0.3-0.3,0.7-0.3,1L123.7,76.3L123.7,76.3z"/>
		<path class="st3" d="M128.9,78.6C128.9,78.7,128.8,78.7,128.9,78.6l-0.4,0.1c-0.1,0-0.1,0-0.1-0.1v-2.5c0-1-0.4-1.3-1-1.3
			c-0.9,0-1.3,0.5-1.3,1.3v2.5c0,0.1,0,0.1-0.1,0.1h-0.3c-0.1,0-0.1,0-0.1-0.1v-3.2c0-0.5,0-0.7,0-0.9c0-0.1,0-0.1,0.1-0.1h0.3
			c0.1,0,0.1,0,0.1,0.1v0.4c0.3-0.5,0.7-0.7,1.4-0.7c1,0,1.5,0.6,1.5,1.7L128.9,78.6L128.9,78.6z"/>
		<path class="st3" d="M132.4,78.7c-0.2,0.1-0.5,0.1-0.7,0.1c-0.4,0-0.7-0.1-0.8-0.4c-0.1-0.2-0.1-0.5-0.1-1v-2.6H130
			c-0.1,0-0.1,0-0.1-0.1v-0.2c0-0.1,0-0.1,0.1-0.1h0.7v-1.1c0-0.1,0-0.1,0.1-0.1h0.3c0.1,0,0.1,0,0.1,0.1v1h0.9c0.1,0,0.1,0,0.1,0.1
			v0.2c0,0.1,0,0.1-0.1,0.1h-0.9v2.8c0,0.5,0.2,0.7,0.6,0.7c0.1,0,0.3,0,0.5-0.1c0,0,0.1,0,0.1,0v0.2
			C132.4,78.6,132.4,78.7,132.4,78.7z"/>
	</g>
</g>
<g>
	<g>
		<g>
			<path class="st4" d="M11.6,0h6.5c0.3,0,0.6,0.1,0.8,0.3s0.4,0.4,0.6,0.7c0.1,0.3,0.2,0.5,0.3,0.8C20,2,20,2.2,20,2.4L24.7,20
				l4.7-16.7c0.2-0.7,0.2-1.2,0-1.5c-0.2-0.4-0.7-0.6-1.3-0.6V0h6v1.1c-1.6,0-2.6,0.7-3,2.2l-6,21.5h-1.3c-0.7,0-1.4-0.2-2-0.6
				c-0.6-0.4-1.1-1.1-1.5-2.1l-3-9.5l-3.9,12.2H12c-0.7,0-1.4-0.2-2-0.6c-0.6-0.4-1.1-1.1-1.4-2.1L3.1,3.3C2.6,1.8,1.6,1.1,0,1.1V0
				h6.2c0.3,0,0.6,0.1,0.8,0.3c0.2,0.2,0.4,0.4,0.6,0.7C7.8,1.2,7.9,1.4,8,1.7C8,2,8.1,2.2,8.1,2.4l4.8,17.5l3.4-10l-1.6-6.6
				c-0.5-1.5-1.5-2.2-3.1-2.2V0z"/>
			<path class="st4" d="M47.7,7.7c2.6,0,4.6,0.5,6,1.5s2.1,2.5,2.1,4.6v11.1h-3.6c-0.5,0-0.9-0.1-1.2-0.4c-0.3-0.3-0.4-0.7-0.4-1.1
				v-8.6c0-2-0.3-3.4-0.8-4.2c-0.6-0.8-1.3-1.2-2.4-1.2c-1.1,0-2.2,0.4-3.3,1.2v14.3h-3.6c-0.5,0-0.9-0.1-1.2-0.4
				c-0.3-0.3-0.4-0.7-0.4-1.1V3.1c0-1.5-0.9-2.3-2.6-2.3V0h6.4c0.5,0,0.8,0.1,1.1,0.3S44,1.1,44,2v6.8c0.6-0.4,1.2-0.6,1.8-0.8
				C46.5,7.8,47.1,7.7,47.7,7.7z"/>
			<path class="st4" d="M82.9,10.6c-0.5-0.2-1.1-0.5-1.9-0.7c-0.8-0.3-1.8-0.4-3-0.4c-1.2,0-2.1,0.1-2.7,0.5
				c-0.6,0.3-0.9,0.7-0.9,1.3c0,0.3,0.1,0.6,0.2,0.8c0.1,0.2,0.4,0.5,0.6,0.6c0.2,0.2,0.5,0.3,0.8,0.5c0.3,0.1,0.6,0.3,0.9,0.4
				c0.8,0.4,1.6,0.7,2.4,1.1c0.7,0.3,1.4,0.7,2.1,1c1,0.6,1.9,1.2,2.5,1.9c0.7,0.7,1,1.5,1,2.4c0,1.7-0.7,3.1-2,4
				c-1.3,1-3.3,1.4-5.9,1.4c-1.2,0-2.3-0.2-3.4-0.7c-1.2-0.4-2.1-1-3-1.6l1-1.5c0.8,0.7,1.7,1.2,2.7,1.5c0.9,0.4,1.9,0.6,2.7,0.6
				c1.1,0,1.9-0.1,2.4-0.5c0.5-0.3,0.8-0.7,0.9-1.3c0.1-0.7,0-1.2-0.4-1.6c-0.4-0.4-0.9-0.8-1.5-1.2c-0.7-0.4-1.4-0.7-2.2-1.1
				c-0.8-0.4-1.6-0.7-2.4-1.1c-1-0.5-1.8-1-2.5-1.7c-0.7-0.7-1-1.5-1-2.6c0-1,0.2-1.9,0.7-2.5s1.1-1.2,1.8-1.5
				c0.7-0.4,1.5-0.6,2.4-0.7c0.9-0.1,1.8-0.2,2.6-0.2c0.4,0,0.9,0,1.4,0.1c0.5,0,1,0.1,1.5,0.3c0.5,0.1,1,0.2,1.4,0.4
				c0.5,0.2,0.9,0.4,1.3,0.6L82.9,10.6z"/>
			<path class="st4" d="M105.7,7.8l-5.5,6.2l4,8c0.2,0.5,0.6,1,1,1.6c0.4,0.6,0.8,0.9,1.2,1.2h-5.5c-0.5,0-0.9-0.2-1.3-0.6
				s-0.7-1-1-1.8l-2.1-4.2l-2.4,2.7v3.9h-3.6c-0.5,0-0.9-0.1-1.2-0.4c-0.3-0.3-0.4-0.7-0.4-1.1V3.1c0-1.5-0.9-2.3-2.6-2.3V0h6.2
				c0.5,0,0.8,0.1,1.1,0.3S94,1.1,94,2V18l9.3-10.2L105.7,7.8L105.7,7.8z"/>
			<path class="st4" d="M117,25.3c-3,0-5.2-0.7-6.8-2.2c-0.8-0.7-1.4-1.7-1.8-2.9c-0.4-1.2-0.6-2.5-0.6-3.9c0-2.7,0.8-4.8,2.4-6.4
				c1.6-1.5,3.9-2.3,6.7-2.3c2.9,0,5.2,0.7,6.7,2.3c0.8,0.7,1.3,1.7,1.8,2.8c0.4,1.1,0.6,2.3,0.6,3.7V17h-13c0,0.9,0,1.6,0,2.2
				c0,0.6,0.1,1.1,0.2,1.5c0,0.4,0.1,0.7,0.2,0.9c0,0.2,0.1,0.4,0.2,0.4c0.2,0.4,0.4,0.7,0.7,0.9s0.6,0.4,0.8,0.5
				c0.3,0.1,0.6,0.2,1,0.2c0.3,0,0.7,0,1,0c1.4,0,2.7-0.2,3.8-0.6c1.1-0.4,2.2-1,3.2-2l1.1,1.3c-0.7,0.7-1.3,1.2-2.1,1.6
				c-0.7,0.4-1.4,0.7-2.2,0.8c-0.7,0.2-1.4,0.3-2.1,0.4C118.2,25.3,117.6,25.3,117,25.3z M120.8,15.3c0-1-0.1-1.8-0.2-2.5
				c-0.1-0.7-0.2-1.2-0.4-1.6c-0.3-0.7-0.7-1.2-1.2-1.5c-0.5-0.3-1.2-0.4-2-0.4c-1.7,0-2.7,0.6-3.3,1.7c-0.2,0.6-0.4,1.2-0.5,1.9
				c-0.1,0.7-0.1,1.5-0.1,2.5L120.8,15.3L120.8,15.3z"/>
			<path class="st4" d="M135.4,24.8h-3.6c-0.5,0-0.9-0.1-1.2-0.4c-0.3-0.3-0.4-0.7-0.4-1.1V10.9c0-1.5-0.9-2.3-2.6-2.3V7.8h6.4
				c0.6,0,0.9,0.2,1.1,0.6c0.2,0.4,0.3,0.8,0.4,1.3c0.8-0.7,1.6-1.3,2.4-1.6s1.7-0.4,2.7-0.4c0.5,0,1.1,0.1,1.9,0.2
				c0.7,0.2,1.6,0.6,2.6,1.2l-0.7,1.5c-0.7-0.4-1.3-0.7-1.9-0.9c-0.6-0.2-1.2-0.3-2-0.3c-2,0-3.7,0.8-5,2.4L135.4,24.8L135.4,24.8z"
				/>
		</g>
		<g>
			<path class="st4" d="M63.3,20.1c-0.7,0-1.3,0.3-1.9,0.8c-0.5,0.6-0.8,1.2-0.8,1.9c0,0.7,0.3,1.3,0.8,1.8c0.5,0.5,1.1,0.8,1.9,0.8
				c0.7,0,1.3-0.3,1.9-0.8c0.5-0.5,0.8-1.1,0.8-1.8c0-0.7-0.3-1.3-0.8-1.9C64.7,20.3,64.1,20.1,63.3,20.1z"/>
			<path class="st4" d="M65.9,1.5c0-0.5-0.1-0.8-0.4-1.1C65.2,0.1,64.8,0,64.3,0h-3.6v15.5c0,0.9,0.1,1.4,0.5,1.6
				c0.3,0.2,0.7,0.3,1.1,0.3h3.6V1.5z"/>
		</g>
	</g>
	<g>
		<path class="st4" d="M13.9,38.6C13.9,38.7,13.9,38.7,13.9,38.6l-0.5,0.1c-0.1,0-0.1,0-0.1-0.1V33c0-0.2,0-0.2,0.2-0.2H15
			c0.6,0,1.1,0.1,1.4,0.4c0.3,0.3,0.5,0.7,0.5,1.3c0,1.1-0.8,1.8-2,1.7h-1L13.9,38.6L13.9,38.6z M16.3,34.5c0-0.7-0.4-1.2-1.2-1.2
			h-1.2v2.4h0.7C15.6,35.7,16.2,35.5,16.3,34.5z"/>
		<path class="st4" d="M18.4,38.7H18c-0.1,0-0.1,0-0.1-0.1v-6.2c0-0.1,0-0.1,0.1-0.1h0.4c0.1,0,0.1,0,0.1,0.1v6.1
			C18.5,38.7,18.4,38.7,18.4,38.7z"/>
		<path class="st4" d="M20,35.1C20,35.1,20,35.1,20,35.1L20,34.7c0-0.1,0-0.1,0.1-0.2c0.4-0.2,0.8-0.3,1.3-0.3
			c1.1,0,1.5,0.5,1.5,1.5v2c0,0.3,0,0.6,0,0.8c0,0.1,0,0.1-0.1,0.1h-0.3c-0.1,0-0.1,0-0.1-0.1v-0.6c-0.2,0.6-0.8,0.8-1.4,0.8
			c-0.6,0-0.9-0.1-1.2-0.5c-0.2-0.2-0.3-0.5-0.3-0.8c0-0.7,0.3-1.1,0.9-1.3c0.4-0.1,1-0.2,1.8-0.2h0.1v-0.2c0-0.7-0.3-1-1-1
			C20.8,34.7,20.4,34.8,20,35.1z M22.3,36.5h-0.1c-0.6,0-1.1,0-1.4,0.2c-0.5,0.1-0.7,0.5-0.7,0.9c0,0.3,0.1,0.5,0.3,0.7
			c0.1,0.1,0.4,0.2,0.7,0.2c0.7,0,1.3-0.6,1.3-1.7L22.3,36.5L22.3,36.5z"/>
		<path class="st4" d="M26.2,38.7c-0.2,0.1-0.5,0.1-0.7,0.1c-0.4,0-0.7-0.1-0.8-0.4c-0.1-0.2-0.1-0.5-0.1-1v-2.6h-0.7
			c-0.1,0-0.1,0-0.1-0.1v-0.2c0-0.1,0-0.1,0.1-0.1h0.7v-1.1c0-0.1,0-0.1,0.1-0.1H25c0.1,0,0.1,0,0.1,0.1v1H26c0.1,0,0.1,0,0.1,0.1
			v0.2c0,0.1,0,0.1-0.1,0.1h-0.9v2.8c0,0.5,0.2,0.7,0.6,0.7c0.1,0,0.3,0,0.5-0.1c0,0,0.1,0,0.1,0v0.2C26.3,38.6,26.3,38.7,26.2,38.7
			z"/>
		<path class="st4" d="M29.1,32.3c0.1,0,0.1,0.1,0.1,0.2v0.2c0,0,0,0.1-0.1,0c-0.1,0-0.2,0-0.3,0c-0.3,0-0.5,0.1-0.6,0.5
			c0,0.1,0,0.4,0,0.8v0.4H29c0.1,0,0.1,0,0.1,0.1v0.2c0,0.1,0,0.1-0.1,0.1h-0.9v3.8c0,0.1,0,0.1-0.1,0.1h-0.3c-0.1,0-0.1,0-0.1-0.1
			v-3.7h-0.8c-0.1,0-0.1,0-0.1-0.1v-0.2c0-0.1,0-0.1,0.1-0.1h0.8v-0.3c0-0.6,0-1,0.1-1.3c0.2-0.4,0.5-0.6,1-0.6
			C28.8,32.2,28.9,32.2,29.1,32.3z"/>
		<path class="st4" d="M33.8,36.6c0,0.7-0.2,1.2-0.5,1.6c-0.4,0.5-0.9,0.7-1.5,0.7c-0.7,0-1.2-0.3-1.6-0.7c-0.3-0.4-0.5-1-0.5-1.6
			c0-0.7,0.1-1.2,0.5-1.6c0.4-0.5,0.9-0.7,1.6-0.7c0.7,0,1.2,0.2,1.5,0.7C33.6,35.4,33.8,35.9,33.8,36.6z M33.2,36.6
			c0-0.5-0.1-0.9-0.4-1.3c-0.3-0.3-0.7-0.5-1.1-0.5c-0.5,0-0.8,0.2-1.1,0.5c-0.2,0.3-0.4,0.8-0.4,1.3s0.1,1,0.4,1.3
			c0.3,0.3,0.7,0.5,1.1,0.5c0.5,0,0.8-0.2,1.1-0.5C33.1,37.5,33.2,37.1,33.2,36.6z"/>
		<path class="st4" d="M36.9,34.9c-0.1,0-0.2,0-0.4,0c-0.4,0-0.7,0.2-0.9,0.6c-0.1,0.3-0.2,0.7-0.2,1.2v2c0,0.1,0,0.1-0.1,0.1H35
			c-0.1,0-0.1,0-0.1-0.1v-3.3c0-0.4,0-0.6,0-0.8c0-0.1,0-0.1,0.1-0.1h0.3c0.1,0,0.1,0,0.1,0.1v0.8c0.3-0.7,0.7-1,1.2-1
			c0.1,0,0.2,0,0.4,0c0,0,0.1,0,0.1,0.1v0.3C37.1,34.9,37,34.9,36.9,34.9z"/>
		<path class="st4" d="M37.8,35.4c0-0.5,0-0.7,0-0.9c0-0.1,0-0.1,0.1-0.1h0.3c0.1,0,0.1,0,0.1,0.1v0.4c0.2-0.4,0.7-0.7,1.3-0.7
			c0.7,0,1.2,0.3,1.3,0.9c0.2-0.6,0.7-0.9,1.4-0.9c0.8,0,1.3,0.7,1.3,1.4v2.9c0,0.1,0,0.1-0.1,0.1h-0.3c-0.1,0-0.1,0-0.1-0.1v-2.8
			c0-0.7-0.3-1.1-0.9-1.1c-0.7,0-1.2,0.7-1.2,1.6v2.3c0,0.1,0,0.1-0.1,0.1h-0.3c-0.1,0-0.1,0-0.1-0.1v-2.7c0-0.7-0.3-1.1-0.9-1.1
			c-0.7,0-1.2,0.5-1.2,1.3v2.6c0,0.1,0,0.1-0.1,0.1h-0.3c-0.1,0-0.1,0-0.1-0.1L37.8,35.4L37.8,35.4z"/>
		<path class="st4" d="M52.1,38.6C52.2,38.7,52.2,38.7,52.1,38.6l-0.5,0.1c-0.1,0-0.1,0-0.2-0.1L50.9,38c-0.5,0.5-1.1,0.8-1.8,0.8
			c-0.6,0-1-0.1-1.3-0.4c-0.4-0.3-0.6-0.7-0.6-1.3c0-0.8,0.5-1.3,1.4-1.7c-0.3-0.3-0.4-0.5-0.5-0.7c-0.2-0.3-0.3-0.6-0.3-0.8
			c0-0.4,0.2-0.7,0.5-1c0.3-0.2,0.7-0.3,1.1-0.3c0.4,0,0.7,0.1,1,0.3c0.3,0.2,0.4,0.6,0.4,0.9c0,0.4-0.1,0.8-0.5,1l0,0
			c-0.2,0.1-0.5,0.4-1,0.6c0.6,0.6,1,1.2,1.6,1.8c0.3-0.5,0.5-1,0.5-1.7c0-0.1,0-0.1,0.1-0.1h0.3c0.1,0,0.1,0,0.1,0.1
			c0,0.7-0.2,1.4-0.7,2L52.1,38.6z M48.8,35.7c-0.3,0.1-0.6,0.3-0.8,0.5c-0.2,0.2-0.4,0.6-0.4,0.8c0,0.4,0.1,0.7,0.4,0.9
			c0.3,0.2,0.6,0.3,1,0.3c0.6,0,1.1-0.3,1.5-0.7L48.8,35.7z M50.1,33.9c0-0.3-0.1-0.5-0.2-0.7c-0.1-0.1-0.4-0.2-0.6-0.2
			c-0.3,0-0.5,0.1-0.7,0.2c-0.2,0.2-0.3,0.4-0.3,0.7c0,0.3,0.3,0.8,0.7,1.2c0.4-0.2,0.7-0.3,0.8-0.4C50,34.5,50.1,34.3,50.1,33.9z"
			/>
		<path class="st4" d="M55.3,38.6c-0.1,0-0.1-0.1-0.1-0.1l0-0.4c0-0.1,0.1-0.1,0.1-0.1c0.4,0.2,0.7,0.3,1.2,0.3
			c0.8,0,1.3-0.5,1.3-1.2c0-0.3-0.3-0.6-0.7-0.9c-0.7-0.5-2-1-2-2c0-1,0.9-1.6,1.9-1.6c0.4,0,0.7,0,1.1,0.1c0.1,0,0.1,0.1,0.1,0.1
			l0,0.3c0,0.1,0,0.1-0.1,0.1c-0.3-0.1-0.6-0.2-1-0.2c-0.7,0-1.3,0.3-1.3,1c0,0.6,0.8,1,1.3,1.3c0.7,0.4,1.4,0.8,1.4,1.7
			c0,1.1-0.9,1.7-2,1.7C56.1,38.9,55.8,38.8,55.3,38.6z"/>
		<path class="st4" d="M59.4,39.9c0,0-0.1,0-0.1-0.1l0-0.3c0,0,0-0.1,0.1,0c0.1,0,0.2,0,0.3,0c0.2,0,0.4-0.1,0.5-0.2
			c0.1-0.1,0.3-0.5,0.4-1c-0.5-1.3-0.9-2.6-1.4-3.9c0,0,0-0.1,0-0.1h0.4c0.1,0,0.1,0,0.1,0.1l1.1,3.1c0.4-1.1,0.7-2,1.1-3.1
			c0-0.1,0.1-0.1,0.1-0.1h0.3c0,0,0.1,0,0,0.1l-1.7,4.5c-0.1,0.3-0.3,0.6-0.4,0.7c-0.2,0.2-0.4,0.3-0.7,0.3
			C59.7,39.9,59.6,39.9,59.4,39.9z"/>
		<path class="st4" d="M63.3,38.2c0.3,0.1,0.7,0.2,1,0.2c0.6,0,1-0.3,1-0.8c0-0.3-0.2-0.6-0.6-0.7c-0.3-0.2-0.7-0.3-1-0.5
			c-0.4-0.2-0.6-0.6-0.6-0.9c0-0.8,0.7-1.2,1.4-1.2c0.4,0,0.7,0,1,0.1c0,0,0.1,0,0.1,0.1l0,0.2c0,0.1-0.1,0.1-0.1,0.1
			c-0.3-0.1-0.5-0.1-0.9-0.1c-0.6,0-0.9,0.2-0.9,0.7c0,0.2,0.1,0.4,0.6,0.6c0.3,0.2,0.7,0.3,1,0.5c0.3,0.2,0.6,0.6,0.6,1
			c0,0.8-0.7,1.3-1.5,1.3c-0.5,0-0.7,0-1.1-0.1c-0.1,0-0.1-0.1-0.1-0.1l0-0.3C63.2,38.2,63.2,38.2,63.3,38.2z"/>
		<path class="st4" d="M68.9,38.7c-0.2,0.1-0.5,0.1-0.7,0.1c-0.4,0-0.7-0.1-0.8-0.4c-0.1-0.2-0.1-0.5-0.1-1v-2.6h-0.8
			c-0.1,0-0.1,0-0.1-0.1v-0.2c0-0.1,0-0.1,0.1-0.1h0.7v-1.1c0-0.1,0-0.1,0.1-0.1h0.3c0.1,0,0.1,0,0.1,0.1v1h0.9c0.1,0,0.1,0,0.1,0.1
			v0.2c0,0.1,0,0.1-0.1,0.1h-0.9v2.8c0,0.5,0.2,0.7,0.6,0.7c0.1,0,0.3,0,0.5-0.1c0,0,0.1,0,0.1,0v0.2C69,38.6,69,38.7,68.9,38.7z"/>
		<path class="st4" d="M70.1,36.7c0,1.1,0.6,1.7,1.4,1.7c0.4,0,0.8-0.1,1.1-0.3c0.1,0,0.1,0,0.1,0v0.4c0,0,0,0.1-0.1,0.1
			c-0.4,0.1-0.7,0.2-1.2,0.2c-1.3,0-2-0.7-2-2.3c0-0.7,0.2-1.2,0.5-1.6c0.4-0.4,0.8-0.7,1.3-0.7c0.6,0,1,0.2,1.3,0.7
			c0.3,0.4,0.4,0.9,0.4,1.5c0,0.3,0,0.3-0.3,0.3H70.1z M72.5,36.3c0-0.4-0.1-0.8-0.3-1.1c-0.2-0.3-0.5-0.5-0.8-0.5s-0.7,0.1-0.9,0.5
			c-0.2,0.3-0.3,0.7-0.3,1L72.5,36.3L72.5,36.3z"/>
		<path class="st4" d="M74.2,35.4c0-0.5,0-0.7,0-0.9c0-0.1,0-0.1,0.1-0.1h0.3c0.1,0,0.1,0,0.1,0.1v0.4c0.2-0.4,0.7-0.7,1.3-0.7
			c0.7,0,1.2,0.3,1.3,0.9c0.2-0.6,0.7-0.9,1.4-0.9c0.8,0,1.3,0.7,1.3,1.4v2.9c0,0.1,0,0.1-0.1,0.1h-0.3c-0.1,0-0.1,0-0.1-0.1v-2.8
			c0-0.7-0.3-1.1-0.9-1.1c-0.7,0-1.2,0.7-1.2,1.6v2.3c0,0.1,0,0.1-0.1,0.1h-0.3c-0.1,0-0.1,0-0.1-0.1v-2.7c0-0.7-0.3-1.1-0.9-1.1
			c-0.7,0-1.2,0.5-1.2,1.3v2.6c0,0.1,0,0.1-0.1,0.1h-0.3c-0.1,0-0.1,0-0.1-0.1L74.2,35.4L74.2,35.4z"/>
		<path class="st4" d="M88.2,35.8c0,1-0.4,1.8-1,2.3c-0.6,0.4-1.4,0.7-2.5,0.7h-0.8c-0.2,0-0.2,0-0.2-0.2V33c0-0.2,0-0.2,0.2-0.2
			h1.3c1,0,1.8,0.3,2.3,0.8C87.9,34.1,88.2,34.8,88.2,35.8z M87.6,35.7c0-0.8-0.2-1.5-0.7-1.9c-0.4-0.4-1-0.6-1.7-0.6h-0.9v4.9h0.5
			C86.7,38.2,87.6,37.4,87.6,35.7z"/>
		<path class="st4" d="M89.8,36.7c0,1.1,0.6,1.7,1.4,1.7c0.4,0,0.8-0.1,1.1-0.3c0.1,0,0.1,0,0.1,0v0.4c0,0,0,0.1-0.1,0.1
			c-0.4,0.1-0.7,0.2-1.2,0.2c-1.3,0-2-0.7-2-2.3c0-0.7,0.2-1.2,0.5-1.6c0.4-0.4,0.8-0.7,1.3-0.7c0.6,0,1,0.2,1.3,0.7
			c0.3,0.4,0.4,0.9,0.4,1.5c0,0.3,0,0.3-0.3,0.3H89.8z M92.2,36.3c0-0.4-0.1-0.8-0.3-1.1c-0.2-0.3-0.5-0.5-0.8-0.5s-0.7,0.1-0.9,0.5
			c-0.2,0.3-0.3,0.7-0.3,1L92.2,36.3L92.2,36.3z"/>
		<path class="st4" d="M95.5,38.6c0,0.1-0.1,0.1-0.1,0.1H95c-0.1,0-0.1,0-0.1-0.1l-1.4-4.1c0,0,0-0.1,0.1-0.1h0.4c0,0,0.1,0,0.1,0.1
			l1.2,3.7l1.3-3.7c0,0,0.1-0.1,0.1-0.1H97c0,0,0.1,0,0.1,0.1L95.5,38.6z"/>
		<path class="st4" d="M98,36.7c0,1.1,0.6,1.7,1.4,1.7c0.4,0,0.8-0.1,1.1-0.3c0.1,0,0.1,0,0.1,0v0.4c0,0,0,0.1-0.1,0.1
			c-0.4,0.1-0.7,0.2-1.2,0.2c-1.3,0-2-0.7-2-2.3c0-0.7,0.2-1.2,0.5-1.6c0.4-0.4,0.8-0.7,1.3-0.7c0.6,0,1,0.2,1.3,0.7
			c0.3,0.4,0.4,0.9,0.4,1.5c0,0.3,0,0.3-0.3,0.3H98z M100.4,36.3c0-0.4-0.1-0.8-0.3-1.1c-0.2-0.3-0.5-0.5-0.8-0.5
			c-0.4,0-0.7,0.1-0.9,0.5c-0.2,0.3-0.3,0.7-0.3,1L100.4,36.3L100.4,36.3z"/>
		<path class="st4" d="M102.6,38.7h-0.4c-0.1,0-0.1,0-0.1-0.1v-6.2c0-0.1,0-0.1,0.1-0.1h0.4c0.1,0,0.1,0,0.1,0.1v6.1
			C102.7,38.7,102.7,38.7,102.6,38.7z"/>
		<path class="st4" d="M107.8,36.6c0,0.7-0.2,1.2-0.5,1.6c-0.4,0.5-0.9,0.7-1.5,0.7c-0.7,0-1.2-0.3-1.6-0.7c-0.3-0.4-0.5-1-0.5-1.6
			c0-0.7,0.1-1.2,0.5-1.6c0.4-0.5,0.9-0.7,1.6-0.7c0.7,0,1.2,0.2,1.5,0.7C107.7,35.4,107.8,35.9,107.8,36.6z M107.2,36.6
			c0-0.5-0.1-0.9-0.4-1.3c-0.3-0.3-0.7-0.5-1.1-0.5c-0.5,0-0.8,0.2-1.1,0.5c-0.2,0.3-0.4,0.8-0.4,1.3s0.1,1,0.4,1.3
			c0.3,0.3,0.7,0.5,1.1,0.5c0.5,0,0.8-0.2,1.1-0.5C107.1,37.5,107.2,37.1,107.2,36.6z"/>
		<path class="st4" d="M108.9,34.5C108.9,34.4,108.9,34.4,108.9,34.5l0.4-0.1c0.1,0,0.1,0,0.1,0.1l0,0.6c0.2-0.5,0.7-0.8,1.4-0.8
			c1.3,0,1.8,1,1.8,2.2c0,1.3-0.6,2.3-1.8,2.3c-0.7,0-1.1-0.3-1.4-0.7v1.7c0,0.1,0,0.1-0.1,0.1H109c0,0-0.1,0-0.1-0.1L108.9,34.5
			L108.9,34.5z M111.9,36.5c0-0.9-0.3-1.7-1.3-1.7c-0.9,0-1.3,0.8-1.3,1.7c0,1.3,0.5,1.9,1.3,1.9C111.5,38.4,111.9,37.7,111.9,36.5z
			"/>
		<path class="st4" d="M113.8,35.4c0-0.5,0-0.7,0-0.9c0-0.1,0-0.1,0.1-0.1h0.3c0.1,0,0.1,0,0.1,0.1v0.4c0.2-0.4,0.7-0.7,1.3-0.7
			c0.7,0,1.2,0.3,1.3,0.9c0.2-0.6,0.7-0.9,1.4-0.9c0.8,0,1.3,0.7,1.3,1.4v2.9c0,0.1,0,0.1-0.1,0.1h-0.3c-0.1,0-0.1,0-0.1-0.1v-2.8
			c0-0.7-0.3-1.1-0.9-1.1c-0.7,0-1.2,0.7-1.2,1.6v2.3c0,0.1,0,0.1-0.1,0.1h-0.3c-0.1,0-0.1,0-0.1-0.1v-2.7c0-0.7-0.3-1.1-0.9-1.1
			c-0.7,0-1.2,0.5-1.2,1.3v2.6c0,0.1,0,0.1-0.1,0.1h-0.3c-0.1,0-0.1,0-0.1-0.1L113.8,35.4L113.8,35.4z"/>
		<path class="st4" d="M121.4,36.7c0,1.1,0.6,1.7,1.4,1.7c0.4,0,0.8-0.1,1.1-0.3c0.1,0,0.1,0,0.1,0v0.4c0,0,0,0.1-0.1,0.1
			c-0.4,0.1-0.7,0.2-1.2,0.2c-1.3,0-2-0.7-2-2.3c0-0.7,0.2-1.2,0.5-1.6c0.4-0.4,0.8-0.7,1.3-0.7c0.6,0,1,0.2,1.3,0.7
			c0.3,0.4,0.4,0.9,0.4,1.5c0,0.3,0,0.3-0.3,0.3H121.4z M123.7,36.3c0-0.4-0.1-0.8-0.3-1.1c-0.2-0.3-0.5-0.5-0.8-0.5
			c-0.4,0-0.7,0.1-0.9,0.5c-0.2,0.3-0.3,0.7-0.3,1L123.7,36.3L123.7,36.3z"/>
		<path class="st4" d="M128.9,38.6C128.9,38.7,128.8,38.7,128.9,38.6l-0.4,0.1c-0.1,0-0.1,0-0.1-0.1v-2.5c0-1-0.4-1.3-1-1.3
			c-0.9,0-1.3,0.5-1.3,1.3v2.5c0,0.1,0,0.1-0.1,0.1h-0.3c-0.1,0-0.1,0-0.1-0.1v-3.2c0-0.5,0-0.7,0-0.9c0-0.1,0-0.1,0.1-0.1h0.3
			c0.1,0,0.1,0,0.1,0.1v0.4c0.3-0.5,0.7-0.7,1.4-0.7c1,0,1.5,0.6,1.5,1.7L128.9,38.6L128.9,38.6z"/>
		<path class="st4" d="M132.4,38.7c-0.2,0.1-0.5,0.1-0.7,0.1c-0.4,0-0.7-0.1-0.8-0.4c-0.1-0.2-0.1-0.5-0.1-1v-2.6H130
			c-0.1,0-0.1,0-0.1-0.1v-0.2c0-0.1,0-0.1,0.1-0.1h0.7v-1.1c0-0.1,0-0.1,0.1-0.1h0.3c0.1,0,0.1,0,0.1,0.1v1h0.9c0.1,0,0.1,0,0.1,0.1
			v0.2c0,0.1,0,0.1-0.1,0.1h-0.9v2.8c0,0.5,0.2,0.7,0.6,0.7c0.1,0,0.3,0,0.5-0.1c0,0,0.1,0,0.1,0v0.2
			C132.4,38.6,132.4,38.7,132.4,38.7z"/>
	</g>
</g>
</svg>
